<?xml version="1.0" encoding="utf-8"?>
<!-- Generator: Adobe Illustrator 26.0.0, SVG Export Plug-In . SVG Version: 6.00 Build 0)  -->
<svg version="1.1" id="레이어_1" xmlns="http://www.w3.org/2000/svg" xmlns:xlink="http://www.w3.org/1999/xlink" x="0px"
	 y="0px" viewBox="0 0 399.24 120.71" style="enable-background:new 0 0 399.24 120.71;" xml:space="preserve">
<style type="text/css">
	.st0{fill:#FFFFFF;}
</style>
<path class="st0" d="M112.26,64.16c0,7.52,0.93,15.18-0.19,22.53c-2.55,16.87-15.83,28.37-35.05,29.73
	c-12.43,0.88-25.1,0.6-37.5-0.69c-18.39-1.9-30.87-15.84-31.7-34.46C7.29,69.42,7.25,57.52,7.83,45.7
	c1.03-20.81,16.13-34.86,37.06-35.1c10.71-0.12,21.43-0.17,32.14,0.04c20.19,0.4,35.11,15.42,35.63,35.73
	c0.15,5.93,0.02,11.86,0.02,17.79C112.54,64.16,112.4,64.16,112.26,64.16z M59.96,110.64c5.7,0,11.4,0.15,17.09-0.03
	c16.13-0.51,28.75-12.02,29.67-28.16c0.73-12.72,0.68-25.54-0.04-38.26c-0.83-14.79-11.16-25.83-26-27.07
	c-13.1-1.1-26.43-1.29-39.52-0.18C23.74,18.43,14,30.12,13.76,47.67c-0.15,11.17-0.21,22.34,0.08,33.5
	c0.43,16.61,12.96,28.92,29.71,29.44C49.02,110.79,54.49,110.65,59.96,110.64z"/>
<path class="st0" d="M146.44,7.51c8.8,0.59,17.23,0.47,25.41,1.87c10.88,1.86,17.08,10.45,16.98,21.63
	c-0.1,11.17-6.42,19.36-17,21.87c-2.42,0.58-4.92,1.06-7.4,1.13c-5.87,0.16-11.74,0.05-17.99,0.05
	C146.44,38.47,146.44,23.56,146.44,7.51z M154.23,45.93c9.12,0.54,18.1,2.3,23.91-6.43c3.67-5.51,3.94-11.74-0.13-17.26
	c-6.13-8.29-14.88-6.78-23.78-5.99C154.23,26.17,154.23,35.63,154.23,45.93z"/>
<path class="st0" d="M262.14,97.55c-3.26,0-6.6,0-9.94,0c-3.37,0-6.74,0-10.21,0c1.36,8.13,6.3,9.51,16.97,5.38
	c3.82,3.36,3.2,5.8-1.36,7.91c-6.33,2.94-12.42,2.77-18.01-1.39c-5.95-4.43-7.32-10.81-5.98-17.72c1.23-6.36,5.19-10.39,11.61-11.97
	C255,77.35,263.08,85.34,262.14,97.55z M253.09,90.53c0.29-0.73,0.59-1.46,0.88-2.19c-2.13-0.91-4.27-2.56-6.37-2.51
	c-1.82,0.04-3.6,2-5.4,3.11c0.25,0.53,0.49,1.07,0.74,1.6C246.32,90.53,249.7,90.53,253.09,90.53z"/>
<path class="st0" d="M318.12,96.23c-0.1-9.31,7.49-17.02,16.75-17.03c9.21,0,16.91,7.79,16.82,17.02
	c-0.1,9.01-7.41,16.44-16.46,16.7C326.1,113.19,318.21,105.5,318.12,96.23z M334.58,105.17c5.14,0.13,8.98-3.57,9.23-8.91
	c0.25-5.4-3.8-10.28-8.7-10.47c-4.94-0.19-9.13,4.36-9.16,9.93C325.93,101.21,329.42,105.04,334.58,105.17z"/>
<path class="st0" d="M255.86,23.02c4.04-0.34,7.58-0.38,11.02-0.97c9.27-1.59,15.96,3.17,16.48,12.47
	c0.38,6.76,0.07,13.56,0.07,20.62c-2.66,0-4.63,0-7.45,0c0-6.28,0.1-12.38-0.03-18.47c-0.11-4.89-2.4-7.51-7.7-7.29
	c-3.68,0.15-5.41,1.44-5.32,5.29c0.15,6.57,0.04,13.16,0.04,20.35c-2.54,0.14-4.63,0.25-7.11,0.38
	C255.86,44.19,255.86,33.56,255.86,23.02z"/>
<path class="st0" d="M175.19,112.62c-2.7,0.13-4.68,0.22-7.12,0.33c0-11.15,0-21.99,0-32.48c3.85-0.34,7.72-0.49,11.53-1.06
	c8.56-1.28,15.16,3.22,15.82,11.81c0.54,6.97,0.11,14.02,0.11,21.38c-2.48,0.13-4.46,0.24-7.4,0.39c0-6.41,0.06-12.48-0.02-18.55
	c-0.06-4.37-1.57-7.44-6.73-7.54c-4.13-0.08-6.45,0.99-6.26,5.72C175.38,99.17,175.19,105.73,175.19,112.62z"/>
<path class="st0" d="M224.55,55.39c-4.49,0-7.85-0.16-11.18,0.03c-7.22,0.42-12.37-2.98-13.17-8.92c-0.81-5.99,2.45-9.93,9.72-11.64
	c2.18-0.51,4.38-0.92,6.55-1.37c-0.81-6.37-2.12-6.72-12.92-3.5c-0.78-1.45-1.59-2.98-2.47-4.62c0.77-0.57,1.23-1.15,1.79-1.28
	c3.51-0.85,7.03-2.2,10.56-2.25c5.69-0.09,10.66,2.14,11.02,8.66C224.9,38.62,224.55,46.79,224.55,55.39z M216.96,41.49
	c-0.66-0.74-1.32-1.47-1.98-2.21c-2.39,1.91-4.77,3.83-7.16,5.74c1.66,1.31,3.26,3.67,4.97,3.75
	C218.81,49.07,216.82,44.6,216.96,41.49z"/>
<path class="st0" d="M216.67,70.58c0.26,3.11,0.53,6.23,0.81,9.5c2.39,0.28,4.39,0.52,7.07,0.84c0.09,1.72,0.19,3.56,0.3,5.74
	c-2.57,0.19-4.57,0.33-7.19,0.53c0,5.89,0,11.58,0,16.26c3.58,1.62,6.48,2.93,9.39,4.24c-0.25,1.28-0.49,2.56-0.74,3.84
	c-4.16,0-9.12,1.38-12.24-0.43c-2.57-1.49-3.27-6.67-4.2-10.37c-0.6-2.36-0.11-4.99-0.12-7.5c-0.01-1.14,0.34-2.5-0.16-3.38
	c-1.5-2.68-4.85-5.34-4.59-7.69c0.23-2.12,5.48-2.42,5.13-7.08c-0.15-1.98,2.71-4.19,4.21-6.29
	C215.11,69.4,215.89,69.99,216.67,70.58z"/>
<path class="st0" d="M153.63,64.27c0,15.72,0,30.96,0,46.86c-2.25,0.17-4.38,0.33-7.62,0.57c0-13.59,0.22-26.73-0.11-39.85
	C145.77,66.51,147.88,64.37,153.63,64.27z"/>
<path class="st0" d="M383.35,81.13c-1.7,3.09-2.66,4.84-3.56,6.48c-10.04-1.49-11.02-0.66-11.05,9.05c-0.01,4.74,0,9.48,0,14.55
	c-2.63,0-4.58,0-7.67,0c0-5.11,0-10.23,0-15.36c0-4.99,0-9.98,0-14.16c4.17-0.8,7.72-1.92,11.31-2.03
	C375.75,79.56,379.15,80.52,383.35,81.13z"/>
<path class="st0" d="M295.16,80.61c-1.66,3.32-2.54,5.09-3.37,6.76c-10.82-0.94-11.21-0.6-11.22,9.72c-0.01,4.53,0,9.07,0,14.03
	c-2.71,0-4.81,0-7.3,0c0-10.15,0-20.13,0-30.51C280.18,80.61,287.12,80.61,295.16,80.61z"/>
<path class="st0" d="M308.86,79.45c0,10.6,0,21.2,0,32.13c-2.41,0-4.38,0-7.18,0c0-9.47-0.3-18.75,0.25-27.99
	c0.11-1.89,3.45-3.59,5.3-5.38C307.77,78.62,308.32,79.03,308.86,79.45z"/>
<path class="st0" d="M243.32,54.05c-2.3,0-4.27,0-7.2,0c0-9.45-0.31-18.87,0.27-28.25c0.11-1.82,3.72-3.43,6.93-6.17
	C243.32,32.36,243.32,43.03,243.32,54.05z"/>
<path class="st0" d="M240.22,19.1c-2.41-2.71-4.33-4.88-7.1-8c2.47-1.58,5.07-3.24,8.1-5.17c1.25,1.29,3.36,3.45,5.82,5.98
	C244.92,14.14,242.94,16.23,240.22,19.1z"/>
<path class="st0" d="M306.42,62.49c1.85,2.01,3.8,4.13,6.22,6.76c-2.18,2.29-4.3,4.5-7.06,7.4c-2.42-2.52-4.54-4.72-7.39-7.68
	C300.94,66.8,303.21,65.01,306.42,62.49z"/>
<path class="st0" d="M74.11,46.45c0-4.59-0.17-8.88,0.11-13.15c0.08-1.16,1.52-2.22,2.34-3.33c0.99,1.14,2.83,2.27,2.85,3.43
	c0.16,10.7,0.55,21.43-0.21,32.08C78.47,75.65,68.92,83.5,59.69,82.76c-10.02-0.81-17.95-10.16-17.67-20.82
	c0.28-10.47,8.42-19.73,18.12-19.49C64.44,42.55,68.69,44.82,74.11,46.45z M60.91,76.43c7.47-0.07,13.3-6.5,13.07-14.42
	c-0.22-7.7-5.97-13.46-13.36-13.4c-7.62,0.07-13.29,6.32-13.04,14.38C47.83,70.7,53.58,76.5,60.91,76.43z"/>
</svg>
