<svg xmlns="http://www.w3.org/2000/svg" width="51.588" height="52.113" viewBox="0 0 51.588 52.113">
  <g id="그룹_1" data-name="그룹 1" transform="translate(-312.495 -133.153)">
    <path id="패스_16" data-name="패스 16" d="M56.778,35.764c0,3.541.438,7.147-.089,10.608-1.2,7.943-7.453,13.358-16.5,14a101.927,101.927,0,0,1-17.657-.325C13.869,59.151,7.993,52.587,7.6,43.82c-.25-5.58-.268-11.183,0-16.748.485-9.8,7.595-16.414,17.45-16.527,5.043-.057,10.09-.08,15.133.019,9.506.188,16.531,7.26,16.776,16.823.071,2.792.009,5.584.009,8.376ZM32.152,57.649c2.684,0,5.368.071,8.047-.014,7.595-.24,13.537-5.66,13.97-13.259a158.573,158.573,0,0,0-.019-18.015A13.065,13.065,0,0,0,41.908,13.615,111.118,111.118,0,0,0,23.3,13.53c-8.2.7-12.788,6.206-12.9,14.469-.071,5.259-.1,10.519.038,15.773A14,14,0,0,0,24.426,57.634C27,57.719,29.577,57.653,32.152,57.649Z" transform="translate(306.086 123.654)" fill="#24a8f6" stroke="#24a8f6" stroke-width="2"/>
    <path id="패스_17" data-name="패스 17" d="M57.126,37.73c0-2.161-.08-4.181.052-6.192.038-.546.716-1.045,1.1-1.568.466.537,1.332,1.069,1.342,1.615.075,5.038.259,10.09-.1,15.1a8.938,8.938,0,0,1-9.186,8.136c-4.718-.381-8.452-4.784-8.32-9.8.132-4.93,3.965-9.29,8.532-9.177C52.573,35.893,54.574,36.962,57.126,37.73ZM50.91,51.846a6.382,6.382,0,0,0,6.154-6.79,6.227,6.227,0,1,0-12.43.461A6.279,6.279,0,0,0,50.91,51.846Z" transform="translate(287.775 113.349)" fill="#24a8f6" stroke="#24a8f6" stroke-linecap="round" stroke-linejoin="round" stroke-width="3"/>
  </g>
</svg>
